<?xml version="1.0" encoding="UTF-8" standalone="no" ?>
<!--
    Credis: https://www.svgrepo.com/svg/481378/wolf-4, https://icooon-mono.com/13563-%e7%8b%bc%e3%82%a2%e3%82%a4%e3%82%b3%e3%83%b34/
    Author: Icooon Mono
    License: https://icooon-mono.com/license/

    Note from Vovk.ts author: This is an unofficial logo that's temporarily used until a custom one is designed. 
-->
<!DOCTYPE svg PUBLIC "-//W3C//DTD SVG 1.1//EN" "http://www.w3.org/Graphics/SVG/1.1/DTD/svg11.dtd">
<svg xmlns="http://www.w3.org/2000/svg" xmlns:xlink="http://www.w3.org/1999/xlink" version="1.1" width="319.95556" height="92" viewBox="0 0 319.95556 92" xml:space="preserve">
<desc>Created with Fabric.js 5.3.0</desc>
<defs>
</defs>
<g transform="matrix(0.1737995768 0 0 0.1737995768 39.8512941892 44.8611051276)" id="k3p4mJoS6tEew0Q_1_q7m"  >
<path style="stroke: none; stroke-width: 1; stroke-dasharray: none; stroke-linecap: butt; stroke-dashoffset: 0; stroke-linejoin: miter; stroke-miterlimit: 4; fill: #ffffff; fill-rule: nonzero; opacity: 1;"  transform=" translate(-255.9995, -256.0001872585)" d="M 483.009 360.176 C 481.58500000000004 347.11199999999997 479.659 334.54699999999997 477.31100000000004 322.562 C 471.36400000000003 291.575 462.48900000000003 264.261 453.355 241.397 C 433.66900000000004 192.478 412.31 163.831 412.31 163.831 C 412.31 163.831 422.196 149.589 424.794 96.31099999999999 C 425.042 92.62899999999999 425.125 88.85799999999999 425.21099999999996 84.833 C 426.299 41.525999999999996 409.799 12.879000000000005 396.81299999999993 3.495999999999995 C 390.95199999999994 -0.8560000000000052 385.8399999999999 -1.1920000000000046 383.40899999999993 2.742999999999995 C 380.31299999999993 7.520999999999995 369.17099999999994 23.937999999999995 356.27099999999996 42.532 C 355.097 44.128 353.92299999999994 45.805 352.753 47.562999999999995 C 331.72499999999997 77.969 307.683 112.311 307.683 112.311 L 256 112.311 L 204.316 112.311 C 204.316 112.311 180.274 77.97 159.247 47.563 C 158.07700000000003 45.805 156.90300000000002 44.128 155.73000000000002 42.532000000000004 C 142.829 23.94 131.687 7.522 128.591 2.744 C 126.162 -1.1909999999999998 121.049 -0.855 115.18700000000001 3.4970000000000003 C 102.20100000000001 12.879999999999999 85.70100000000001 41.527 86.78900000000002 84.834 C 86.87500000000001 88.85900000000001 86.95700000000002 92.63000000000001 87.20600000000002 96.312 C 89.80300000000001 149.59 99.68900000000002 163.832 99.68900000000002 163.832 C 99.68900000000002 163.832 78.33000000000001 192.48 58.64400000000002 241.398 C 49.511000000000024 264.262 40.63500000000002 291.576 34.68800000000002 322.563 C 32.341000000000015 334.54699999999997 30.414000000000016 347.113 28.991000000000017 360.17699999999996 C 28.90500000000002 360.76599999999996 28.90500000000002 361.43699999999995 28.823000000000018 362.02599999999995 L 29.997000000000018 361.936 L 30.66400000000002 361.85499999999996 L 31.67000000000002 361.85499999999996 L 78.74800000000002 358.92699999999996 L 72.46600000000002 409.68499999999995 L 122.05500000000002 401.9789999999999 L 130.43200000000002 438.2509999999999 L 166.741 419.1089999999999 C 178.348 450.25199999999995 193.609 489.7869999999999 199.99800000000002 500.1839999999999 C 210.936 518.0339999999999 235.01800000000003 512.9379999999999 252.532 502.7449999999999 C 253.829 501.98399999999987 254.90800000000002 501.2969999999999 255.87800000000001 500.6419999999999 C 256.84700000000004 501.2959999999999 257.91900000000004 501.98399999999987 259.232 502.7449999999999 C 276.742 512.9379999999999 300.817 518.0339999999999 311.75800000000004 500.1839999999999 C 318.14700000000005 489.7779999999999 333.50100000000003 450.2099999999999 345.182 419.0679999999999 L 381.56800000000004 438.25199999999995 L 389.94500000000005 401.97999999999996 L 439.53400000000005 409.686 L 433.25100000000003 358.928 L 480.32900000000006 361.856 L 481.33600000000007 361.856 L 482.00200000000007 361.937 L 483.17600000000004 362.027 C 483.094 361.436 483.094 360.765 483.009 360.176 z M 128.845 146.056 C 116.02199999999999 131.24200000000002 110.63499999999999 95.126 114.979 78.21700000000001 C 117.703 67.55700000000002 128.161 63.149000000000015 134.706 70.67500000000001 C 141.266 78.20900000000002 164.274 120.31300000000002 164.274 120.31300000000002 C 164.274 120.31300000000002 132.072 144.445 128.845 146.056 z M 168.045 329.386 C 168.045 329.386 154.08499999999998 300.06800000000004 151.29199999999997 288.90200000000004 C 186.19299999999998 288.90200000000004 200.15699999999998 308.44500000000005 205.73999999999998 314.03200000000004 L 214.11599999999999 332.184 L 168.045 329.386 z M 283.638 456.066 C 272.967 469.662 263.003 470.08799999999997 255.99599999999998 470.08799999999997 C 248.98999999999998 470.08799999999997 239.034 469.662 228.34999999999997 456.066 C 219.78899999999996 445.178 226.79099999999997 431.926 237.69999999999996 431.926 C 241.58999999999995 431.926 255.99499999999995 431.926 255.99499999999995 431.926 C 255.99499999999995 431.926 270.40899999999993 431.926 274.29799999999994 431.926 C 285.212 431.926 292.218 445.178 283.638 456.066 z M 343.955 329.386 L 297.883 332.184 L 306.26 314.03200000000004 C 311.843 308.44500000000005 325.807 288.90200000000004 360.70799999999997 288.90200000000004 C 357.915 300.067 343.955 329.386 343.955 329.386 z M 383.143 146.056 C 379.91999999999996 144.44500000000002 347.72299999999996 120.31300000000002 347.72299999999996 120.31300000000002 C 347.72299999999996 120.31300000000002 370.72599999999994 78.20900000000002 377.27799999999996 70.67500000000001 C 383.82599999999996 63.149000000000015 394.28099999999995 67.558 397.01699999999994 78.21700000000001 C 401.365 95.126 395.965 131.241 383.143 146.056 z" stroke-linecap="round" />
</g>

</svg>