<?xml version="1.0" encoding="utf-8"?>
<svg xmlns="http://www.w3.org/2000/svg" width="800" height="800" viewBox="0 0 512 512">
  <path fill="#000000" fill-rule="evenodd" d="M256.00,112.31L204.32,112.31C204.32,112.31 180.27,77.97 159.25,47.56C158.08,45.80 156.90,44.13 155.73,42.53C142.83,23.94 131.69,7.52 128.59,2.74C126.16,-1.19 121.05,-0.85 115.19,3.50C102.20,12.88 85.70,41.53 86.79,84.83C86.88,88.86 86.96,92.63 87.21,96.31C89.80,149.59 99.69,163.83 99.69,163.83C99.69,163.83 78.33,192.48 58.64,241.40C49.51,264.26 40.64,291.58 34.69,322.56C33.24,323.97 33.19,328.25 36.73,329.72L77.11,349.50C73.54,350.16 67.04,356.49 67.75,356.50C67.02,357.92 64.85,360.03 66.95,363.62L166.74,419.11C178.35,450.25 193.61,489.79 200.00,500.18C210.94,518.03 235.02,512.94 252.53,502.74C253.83,501.98 254.91,501.30 255.88,500.64C257.09,501.30 258.17,501.98 259.47,502.74C276.98,512.94 301.06,518.03 312.00,500.18C318.39,489.79 333.65,450.25 345.26,419.11L445.05,363.62C447.15,360.03 444.98,357.92 444.25,356.50C444.96,356.49 438.46,350.16 434.89,349.50L475.27,329.72C478.81,328.25 478.76,323.97 477.31,322.56C471.37,291.58 462.49,264.26 453.36,241.40C433.67,192.48 412.31,163.83 412.31,163.83C412.31,163.83 422.20,149.59 424.79,96.31C425.04,92.63 425.12,88.86 425.21,84.83C426.30,41.53 409.80,12.88 396.81,3.50C390.95,-0.85 385.84,-1.19 383.41,2.74C380.31,7.52 369.17,23.94 356.27,42.53C355.10,44.13 353.92,45.80 352.75,47.56C331.73,77.97 307.68,112.31 307.68,112.31L256.00,112.31ZM128.845,146.056c-12.823-14.814-18.21-50.93-13.866-67.839 c2.724-10.66,13.182-15.068,19.727-7.542c6.56,7.534,29.568,49.638,29.568,49.638S132.072,144.445,128.845,146.056z M168.045,329.386c0,0-13.96-29.318-16.753-40.484c34.901,0,48.865,19.543,54.448,25.13l8.376,18.152L168.045,329.386z M283.638,456.066c-10.671,13.596-20.635,14.022-27.642,14.022c-7.006,0-16.962-0.426-27.646-14.022 c-8.561-10.888-1.559-24.14,9.35-24.14c3.89,0,18.295,0,18.295,0s14.414,0,18.303,0 C285.212,431.926,292.218,445.178,283.638,456.066z M343.955,329.386l-46.072,2.798l8.377-18.152 c5.583-5.587,19.547-25.13,54.448-25.13C357.915,300.067,343.955,329.386,343.955,329.386z M383.143,146.056 c-3.223-1.611-35.42-25.743-35.42-25.743s23.003-42.104,29.555-49.638c6.548-7.526,17.003-3.117,19.739,7.542 C401.365,95.126,395.965,131.241,383.143,146.056z"/>
</svg>
